<svg xmlns="http://www.w3.org/2000/svg" xmlns:xlink="http://www.w3.org/1999/xlink" width="500" zoomAndPan="magnify" viewBox="0 0 375 225" height="300" preserveAspectRatio="xMidYMid meet" version="1.0"><defs><g/><clipPath id="27ea591580"><path d="M 37.5 55.378906 L 151.5 55.378906 L 151.5 169.378906 L 37.5 169.378906 Z M 37.5 55.378906 " clip-rule="nonzero"/></clipPath></defs><g clip-path="url(#27ea591580)"><path fill="#ffffff" d="M 51.105469 130.507812 C 50.402344 130.113281 49.726562 129.710938 49.070312 129.296875 C 41.6875 124.621094 37.5 118.726562 37.5 112.488281 C 37.5 106.25 41.6875 100.359375 49.070312 95.683594 C 49.726562 95.269531 50.402344 94.863281 51.105469 94.46875 C 50.886719 93.695312 50.695312 92.929688 50.523438 92.171875 C 48.609375 83.644531 49.8125 76.515625 54.226562 72.105469 C 58.636719 67.695312 65.765625 66.488281 74.292969 68.40625 C 75.046875 68.574219 75.8125 68.769531 76.589844 68.984375 C 76.984375 68.28125 77.390625 67.605469 77.800781 66.953125 C 82.480469 59.566406 88.371094 55.378906 94.609375 55.378906 C 100.847656 55.378906 106.738281 59.566406 111.417969 66.953125 C 111.828125 67.605469 112.234375 68.28125 112.628906 68.984375 C 113.40625 68.769531 114.171875 68.574219 114.925781 68.40625 C 123.453125 66.488281 130.582031 67.695312 134.992188 72.105469 C 139.402344 76.515625 140.609375 83.644531 138.695312 92.171875 C 138.523438 92.929688 138.332031 93.695312 138.113281 94.46875 C 138.816406 94.863281 139.492188 95.269531 140.148438 95.683594 C 147.53125 100.359375 151.71875 106.25 151.71875 112.488281 C 151.71875 118.726562 147.53125 124.621094 140.148438 129.296875 C 139.492188 129.710938 138.816406 130.113281 138.113281 130.507812 C 138.332031 131.285156 138.523438 132.050781 138.695312 132.804688 C 140.609375 141.335938 139.402344 148.460938 134.992188 152.875 C 130.582031 157.285156 123.453125 158.488281 114.925781 156.574219 C 114.171875 156.402344 113.40625 156.210938 112.628906 155.992188 C 112.234375 156.695312 111.828125 157.375 111.417969 158.027344 C 106.738281 165.414062 100.847656 169.601562 94.609375 169.601562 C 88.371094 169.601562 82.480469 165.414062 77.800781 158.027344 C 77.390625 157.375 76.984375 156.695312 76.589844 155.992188 C 75.8125 156.210938 75.046875 156.402344 74.292969 156.574219 C 65.765625 158.488281 58.636719 157.285156 54.226562 152.875 C 49.8125 148.460938 48.609375 141.335938 50.523438 132.804688 C 50.695312 132.050781 50.886719 131.285156 51.105469 130.507812 Z M 52.375 98.390625 C 51.984375 98.621094 51.601562 98.855469 51.230469 99.089844 C 45.242188 102.882812 41.53125 107.433594 41.53125 112.488281 C 41.53125 117.546875 45.242188 122.097656 51.230469 125.886719 C 51.601562 126.125 51.984375 126.359375 52.375 126.589844 C 54.023438 122.089844 56.390625 117.328125 59.414062 112.488281 C 56.390625 107.652344 54.023438 102.886719 52.375 98.390625 Z M 74.714844 72.65625 C 74.277344 72.542969 73.839844 72.4375 73.410156 72.339844 C 66.496094 70.789062 60.652344 71.382812 57.078125 74.957031 C 53.503906 78.535156 52.90625 84.375 54.460938 91.289062 C 54.558594 91.722656 54.664062 92.15625 54.777344 92.59375 C 59.121094 90.578125 64.164062 88.882812 69.722656 87.601562 C 71.003906 82.042969 72.699219 77 74.714844 72.65625 Z M 108.707031 70.257812 C 108.476562 69.867188 108.246094 69.484375 108.007812 69.109375 C 104.21875 63.121094 99.664062 59.414062 94.609375 59.414062 C 89.554688 59.414062 85 63.121094 81.210938 69.109375 C 80.972656 69.484375 80.742188 69.867188 80.511719 70.257812 C 85.007812 71.902344 89.773438 74.269531 94.609375 77.292969 C 99.445312 74.269531 104.210938 71.902344 108.707031 70.257812 Z M 134.441406 92.59375 C 134.554688 92.15625 134.660156 91.722656 134.757812 91.289062 C 136.3125 84.375 135.714844 78.535156 132.140625 74.957031 C 128.566406 71.382812 122.722656 70.789062 115.808594 72.339844 C 115.378906 72.4375 114.941406 72.542969 114.503906 72.65625 C 116.519531 77 118.214844 82.042969 119.496094 87.601562 C 125.054688 88.882812 130.097656 90.578125 134.441406 92.59375 Z M 136.84375 126.589844 C 137.234375 126.359375 137.617188 126.125 137.988281 125.886719 C 143.976562 122.097656 147.6875 117.546875 147.6875 112.488281 C 147.6875 107.433594 143.976562 102.882812 137.988281 99.089844 C 137.617188 98.855469 137.234375 98.621094 136.84375 98.390625 C 135.195312 102.886719 132.828125 107.652344 129.804688 112.488281 C 132.828125 117.328125 135.195312 122.089844 136.84375 126.589844 Z M 114.503906 152.320312 C 114.941406 152.4375 115.378906 152.542969 115.808594 152.636719 C 122.722656 154.191406 128.566406 153.597656 132.140625 150.019531 C 135.714844 146.445312 136.3125 140.601562 134.757812 133.6875 C 134.660156 133.257812 134.554688 132.824219 134.441406 132.382812 C 130.097656 134.398438 125.054688 136.09375 119.496094 137.375 C 118.214844 142.933594 116.519531 147.976562 114.503906 152.320312 Z M 80.511719 154.722656 C 80.742188 155.113281 80.972656 155.496094 81.210938 155.867188 C 85 161.855469 89.554688 165.566406 94.609375 165.566406 C 99.664062 165.566406 104.21875 161.855469 108.007812 155.867188 C 108.246094 155.496094 108.476562 155.113281 108.707031 154.722656 C 104.210938 153.078125 99.445312 150.710938 94.609375 147.683594 C 89.773438 150.710938 85.007812 153.078125 80.511719 154.722656 Z M 54.777344 132.382812 C 54.664062 132.824219 54.558594 133.257812 54.460938 133.6875 C 52.90625 140.601562 53.503906 146.445312 57.078125 150.019531 C 60.652344 153.597656 66.496094 154.191406 73.410156 152.636719 C 73.839844 152.542969 74.277344 152.4375 74.714844 152.320312 C 72.699219 147.976562 71.003906 142.933594 69.722656 137.375 C 64.164062 136.09375 59.121094 134.398438 54.777344 132.382812 Z M 68.824219 91.953125 C 64.054688 93.160156 59.722656 94.6875 55.96875 96.484375 C 57.355469 100.40625 59.332031 104.554688 61.855469 108.777344 C 63.582031 106.273438 65.480469 103.765625 67.539062 101.277344 C 67.839844 98.0625 68.273438 94.945312 68.824219 91.953125 Z M 61.855469 116.203125 C 59.332031 120.425781 57.355469 124.570312 55.96875 128.492188 C 59.722656 130.289062 64.054688 131.820312 68.824219 133.023438 C 68.273438 130.035156 67.839844 126.917969 67.539062 123.703125 C 65.480469 121.214844 63.582031 118.707031 61.855469 116.203125 Z M 90.898438 79.734375 C 86.671875 77.214844 82.527344 75.234375 78.605469 73.851562 C 76.808594 77.601562 75.277344 81.933594 74.074219 86.703125 C 77.066406 86.15625 80.179688 85.722656 83.394531 85.417969 C 85.882812 83.359375 88.394531 81.460938 90.898438 79.734375 Z M 115.144531 86.703125 C 113.941406 81.933594 112.410156 77.601562 110.613281 73.851562 C 106.691406 75.234375 102.546875 77.214844 98.320312 79.734375 C 100.824219 81.460938 103.335938 83.359375 105.824219 85.417969 C 109.039062 85.722656 112.152344 86.15625 115.144531 86.703125 Z M 127.363281 108.777344 C 129.882812 104.554688 131.863281 100.40625 133.246094 96.484375 C 129.496094 94.6875 125.164062 93.160156 120.394531 91.953125 C 120.945312 94.945312 121.375 98.0625 121.679688 101.277344 C 123.738281 103.765625 125.636719 106.273438 127.363281 108.777344 Z M 120.394531 133.023438 C 125.164062 131.820312 129.496094 130.289062 133.246094 128.492188 C 131.863281 124.570312 129.882812 120.425781 127.363281 116.203125 C 125.636719 118.707031 123.738281 121.214844 121.679688 123.703125 C 121.375 126.917969 120.945312 130.035156 120.394531 133.023438 Z M 98.320312 145.242188 C 102.546875 147.765625 106.691406 149.746094 110.613281 151.128906 C 112.410156 147.375 113.941406 143.046875 115.144531 138.277344 C 112.152344 138.824219 109.039062 139.257812 105.824219 139.5625 C 103.335938 141.621094 100.824219 143.515625 98.320312 145.242188 Z M 74.074219 138.277344 C 75.277344 143.046875 76.808594 147.375 78.605469 151.128906 C 82.527344 149.746094 86.671875 147.765625 90.898438 145.242188 C 88.394531 143.515625 85.882812 141.621094 83.394531 139.5625 C 80.179688 139.257812 77.066406 138.824219 74.074219 138.277344 Z M 67.082031 108.382812 C 66.066406 109.753906 65.105469 111.125 64.195312 112.488281 C 65.105469 113.855469 66.066406 115.226562 67.082031 116.59375 C 67.035156 115.238281 67.011719 113.871094 67.011719 112.488281 C 67.011719 111.109375 67.035156 109.738281 67.082031 108.382812 Z M 73.105469 90.984375 C 72.78125 92.59375 72.492188 94.242188 72.242188 95.929688 C 73.167969 94.9375 74.121094 93.953125 75.097656 92.976562 C 76.070312 92 77.054688 91.046875 78.046875 90.121094 C 76.363281 90.371094 74.710938 90.660156 73.105469 90.984375 Z M 72.242188 129.050781 C 72.492188 130.738281 72.78125 132.386719 73.105469 133.992188 C 74.710938 134.316406 76.363281 134.605469 78.046875 134.855469 C 77.054688 133.929688 76.070312 132.980469 75.097656 132.003906 C 74.121094 131.027344 73.167969 130.042969 72.242188 129.050781 Z M 94.609375 82.078125 C 93.242188 82.984375 91.871094 83.949219 90.503906 84.960938 C 91.859375 84.917969 93.230469 84.894531 94.609375 84.894531 C 95.988281 84.894531 97.359375 84.917969 98.714844 84.960938 C 97.347656 83.949219 95.976562 82.984375 94.609375 82.078125 Z M 116.113281 90.984375 C 114.503906 90.660156 112.855469 90.371094 111.171875 90.121094 C 112.164062 91.046875 113.148438 92 114.121094 92.976562 C 115.097656 93.953125 116.050781 94.9375 116.976562 95.929688 C 116.726562 94.242188 116.4375 92.59375 116.113281 90.984375 Z M 125.023438 112.488281 C 124.113281 111.125 123.152344 109.753906 122.136719 108.382812 C 122.183594 109.738281 122.207031 111.109375 122.207031 112.488281 C 122.207031 113.871094 122.183594 115.238281 122.136719 116.59375 C 123.152344 115.226562 124.113281 113.855469 125.023438 112.488281 Z M 116.113281 133.992188 C 116.4375 132.386719 116.726562 130.738281 116.976562 129.050781 C 116.050781 130.042969 115.097656 131.027344 114.121094 132.003906 C 113.148438 132.980469 112.164062 133.929688 111.171875 134.855469 C 112.855469 134.605469 114.503906 134.316406 116.113281 133.992188 Z M 94.609375 142.902344 C 95.976562 141.992188 97.347656 141.03125 98.714844 140.015625 C 97.359375 140.0625 95.988281 140.085938 94.609375 140.085938 C 93.230469 140.085938 91.859375 140.0625 90.503906 140.015625 C 91.871094 141.03125 93.242188 141.992188 94.609375 142.902344 Z M 85.914062 116.546875 L 82.898438 123.941406 L 79.253906 122.457031 L 88.03125 100.925781 L 91.675781 100.925781 L 100.453125 122.457031 L 96.808594 123.941406 L 93.796875 116.546875 Z M 92.191406 112.613281 L 89.855469 106.878906 L 87.515625 112.613281 Z M 102.480469 100.605469 L 106.414062 100.605469 L 106.414062 123.546875 L 102.480469 123.546875 Z M 102.480469 100.605469 " fill-opacity="1" fill-rule="evenodd"/></g><g fill="#ffffff" fill-opacity="1"><g transform="translate(161.174993, 122.999998)"><g><path d="M 17.375 -39.59375 C 18.882812 -38.976562 20.28125 -38.054688 21.5625 -36.828125 C 22.84375 -35.597656 23.953125 -34.140625 24.890625 -32.453125 C 25.828125 -30.765625 26.550781 -28.882812 27.0625 -26.8125 C 27.570312 -24.738281 27.828125 -22.546875 27.828125 -20.234375 C 27.828125 -17.523438 27.46875 -14.96875 26.75 -12.5625 C 26.039062 -10.164062 25.050781 -8.054688 23.78125 -6.234375 C 22.519531 -4.421875 21.046875 -2.957031 19.359375 -1.84375 C 17.671875 -0.726562 15.859375 -0.113281 13.921875 0 L 1.875 0 C 1.832031 0 1.8125 -0.0195312 1.8125 -0.0625 C 1.738281 -0.0625 1.703125 -0.078125 1.703125 -0.109375 L 1.703125 -40.3125 C 1.742188 -40.351562 1.78125 -40.375 1.8125 -40.375 C 1.851562 -40.40625 1.875 -40.421875 1.875 -40.421875 L 13.359375 -40.421875 C 14.203125 -40.421875 14.945312 -40.335938 15.59375 -40.171875 C 16.238281 -40.015625 16.832031 -39.820312 17.375 -39.59375 Z M 21.78125 -8.75 L 21.78125 -31.6875 C 21.78125 -31.757812 21.769531 -31.910156 21.75 -32.140625 C 21.726562 -32.378906 21.703125 -32.664062 21.671875 -33 C 21.628906 -33.4375 21.484375 -33.988281 21.234375 -34.65625 C 20.640625 -36.1875 19.691406 -37.445312 18.390625 -38.4375 C 17.085938 -39.4375 15.613281 -39.988281 13.96875 -40.09375 L 7.75 -40.09375 L 7.75 -0.328125 L 13.6875 -0.328125 C 13.914062 -0.328125 14.226562 -0.382812 14.625 -0.5 C 14.882812 -0.53125 15.148438 -0.5625 15.421875 -0.59375 C 15.703125 -0.632812 15.988281 -0.726562 16.28125 -0.875 C 17.851562 -1.425781 19.132812 -2.367188 20.125 -3.703125 C 21.113281 -5.046875 21.644531 -6.5625 21.71875 -8.25 C 21.757812 -8.363281 21.78125 -8.53125 21.78125 -8.75 Z M 21.78125 -8.75 "/></g></g></g><g fill="#ffffff" fill-opacity="1"><g transform="translate(190.762845, 122.999998)"><g><path d="M 7.640625 -23.265625 C 7.679688 -23.222656 7.703125 -23.1875 7.703125 -23.15625 C 7.734375 -23.113281 7.75 -23.09375 7.75 -23.09375 L 7.75 -0.109375 C 7.71875 -0.078125 7.703125 -0.0625 7.703125 -0.0625 C 7.660156 -0.0195312 7.640625 0 7.640625 0 L 1.875 0 C 1.832031 0 1.8125 -0.0195312 1.8125 -0.0625 C 1.738281 -0.0625 1.703125 -0.078125 1.703125 -0.109375 L 1.703125 -23.09375 C 1.742188 -23.132812 1.78125 -23.15625 1.8125 -23.15625 L 1.8125 -23.265625 Z M 4.734375 -28.65625 C 3.890625 -28.65625 3.171875 -28.945312 2.578125 -29.53125 C 1.992188 -30.125 1.703125 -30.84375 1.703125 -31.6875 C 1.703125 -32.519531 1.992188 -33.226562 2.578125 -33.8125 C 3.171875 -34.40625 3.890625 -34.703125 4.734375 -34.703125 C 5.578125 -34.703125 6.289062 -34.40625 6.875 -33.8125 C 7.457031 -33.226562 7.75 -32.519531 7.75 -31.6875 C 7.75 -30.84375 7.457031 -30.125 6.875 -29.53125 C 6.289062 -28.945312 5.578125 -28.65625 4.734375 -28.65625 Z M 4.734375 -28.65625 "/></g></g></g><g fill="#ffffff" fill-opacity="1"><g transform="translate(200.277153, 122.999998)"><g><path d="M 24.921875 -23.15625 C 24.953125 -23.113281 24.96875 -23.09375 24.96875 -23.09375 L 24.96875 5.4375 C 24.96875 7.050781 24.664062 8.554688 24.0625 9.953125 C 23.457031 11.347656 22.625 12.578125 21.5625 13.640625 C 20.5 14.703125 19.257812 15.535156 17.84375 16.140625 C 16.4375 16.742188 14.941406 17.046875 13.359375 17.046875 C 11.859375 17.046875 10.710938 16.742188 9.921875 16.140625 C 9.140625 15.535156 8.5625 14.867188 8.1875 14.140625 C 8.007812 13.765625 7.882812 13.429688 7.8125 13.140625 C 7.738281 12.847656 7.664062 12.554688 7.59375 12.265625 C 7.375 12.847656 7.003906 13.3125 6.484375 13.65625 C 5.972656 14.007812 5.390625 14.1875 4.734375 14.1875 C 3.890625 14.1875 3.171875 13.894531 2.578125 13.3125 C 1.992188 12.726562 1.703125 12.015625 1.703125 11.171875 C 1.703125 10.328125 1.992188 9.609375 2.578125 9.015625 C 3.171875 8.429688 3.890625 8.140625 4.734375 8.140625 C 5.578125 8.140625 6.289062 8.429688 6.875 9.015625 C 7.457031 9.609375 7.75 10.328125 7.75 11.171875 L 7.75 11.390625 C 7.75 11.460938 7.785156 11.679688 7.859375 12.046875 C 7.929688 12.335938 8.003906 12.644531 8.078125 12.96875 C 8.148438 13.300781 8.28125 13.632812 8.46875 13.96875 C 8.800781 14.664062 9.34375 15.296875 10.09375 15.859375 C 10.84375 16.429688 11.929688 16.71875 13.359375 16.71875 C 14.535156 16.71875 15.609375 16.378906 16.578125 15.703125 C 17.554688 15.023438 18.242188 14.132812 18.640625 13.03125 C 18.753906 12.664062 18.816406 12.351562 18.828125 12.09375 C 18.847656 11.84375 18.878906 11.625 18.921875 11.4375 L 18.921875 -4.015625 C 18.878906 -3.679688 18.734375 -3.332031 18.484375 -2.96875 C 18.078125 -2.238281 17.488281 -1.5625 16.71875 -0.9375 C 15.945312 -0.3125 14.828125 0 13.359375 0 C 11.742188 0 10.226562 -0.300781 8.8125 -0.90625 C 7.40625 -1.507812 6.171875 -2.34375 5.109375 -3.40625 C 4.046875 -4.46875 3.210938 -5.695312 2.609375 -7.09375 C 2.003906 -8.488281 1.703125 -9.992188 1.703125 -11.609375 C 1.703125 -13.222656 2.003906 -14.734375 2.609375 -16.140625 C 3.210938 -17.554688 4.046875 -18.796875 5.109375 -19.859375 C 6.171875 -20.921875 7.40625 -21.753906 8.8125 -22.359375 C 10.226562 -22.960938 11.742188 -23.265625 13.359375 -23.265625 C 14.347656 -23.265625 15.3125 -23.132812 16.25 -22.875 C 17.1875 -22.625 18.078125 -22.257812 18.921875 -21.78125 L 18.921875 -23.09375 C 18.921875 -23.132812 18.9375 -23.15625 18.96875 -23.15625 L 18.96875 -23.265625 L 24.859375 -23.265625 C 24.898438 -23.222656 24.921875 -23.1875 24.921875 -23.15625 Z M 18.921875 -5.9375 L 18.921875 -17.328125 C 18.921875 -18.097656 18.773438 -18.820312 18.484375 -19.5 C 18.191406 -20.175781 17.796875 -20.757812 17.296875 -21.25 C 16.804688 -21.75 16.21875 -22.144531 15.53125 -22.4375 C 14.851562 -22.726562 14.128906 -22.875 13.359375 -22.875 C 12.585938 -22.875 11.851562 -22.726562 11.15625 -22.4375 C 10.46875 -22.144531 9.875 -21.75 9.375 -21.25 C 8.882812 -20.757812 8.488281 -20.175781 8.1875 -19.5 C 7.894531 -18.820312 7.75 -18.097656 7.75 -17.328125 L 7.75 -5.5625 C 7.75 -5.476562 7.765625 -5.390625 7.796875 -5.296875 C 7.835938 -5.210938 7.859375 -5.113281 7.859375 -5 C 7.898438 -4.851562 7.9375 -4.707031 7.96875 -4.5625 C 8.007812 -4.414062 8.066406 -4.25 8.140625 -4.0625 C 8.546875 -2.96875 9.210938 -2.070312 10.140625 -1.375 C 11.078125 -0.675781 12.148438 -0.328125 13.359375 -0.328125 C 14.753906 -0.328125 15.828125 -0.609375 16.578125 -1.171875 C 17.328125 -1.742188 17.867188 -2.378906 18.203125 -3.078125 C 18.390625 -3.410156 18.519531 -3.738281 18.59375 -4.0625 C 18.664062 -4.394531 18.738281 -4.707031 18.8125 -5 C 18.882812 -5.332031 18.921875 -5.644531 18.921875 -5.9375 Z M 18.921875 -5.9375 "/></g></g></g><g fill="#ffffff" fill-opacity="1"><g transform="translate(226.950217, 122.999998)"><g><path d="M 7.640625 -23.265625 C 7.679688 -23.222656 7.703125 -23.1875 7.703125 -23.15625 C 7.734375 -23.113281 7.75 -23.09375 7.75 -23.09375 L 7.75 -0.109375 C 7.71875 -0.078125 7.703125 -0.0625 7.703125 -0.0625 C 7.660156 -0.0195312 7.640625 0 7.640625 0 L 1.875 0 C 1.832031 0 1.8125 -0.0195312 1.8125 -0.0625 C 1.738281 -0.0625 1.703125 -0.078125 1.703125 -0.109375 L 1.703125 -23.09375 C 1.742188 -23.132812 1.78125 -23.15625 1.8125 -23.15625 L 1.8125 -23.265625 Z M 4.734375 -28.65625 C 3.890625 -28.65625 3.171875 -28.945312 2.578125 -29.53125 C 1.992188 -30.125 1.703125 -30.84375 1.703125 -31.6875 C 1.703125 -32.519531 1.992188 -33.226562 2.578125 -33.8125 C 3.171875 -34.40625 3.890625 -34.703125 4.734375 -34.703125 C 5.578125 -34.703125 6.289062 -34.40625 6.875 -33.8125 C 7.457031 -33.226562 7.75 -32.519531 7.75 -31.6875 C 7.75 -30.84375 7.457031 -30.125 6.875 -29.53125 C 6.289062 -28.945312 5.578125 -28.65625 4.734375 -28.65625 Z M 4.734375 -28.65625 "/></g></g></g><g fill="#ffffff" fill-opacity="1"><g transform="translate(236.464526, 122.999998)"><g><path d="M 17.375 -39.59375 C 18.882812 -38.976562 20.28125 -38.054688 21.5625 -36.828125 C 22.84375 -35.597656 23.953125 -34.140625 24.890625 -32.453125 C 25.828125 -30.765625 26.550781 -28.882812 27.0625 -26.8125 C 27.570312 -24.738281 27.828125 -22.546875 27.828125 -20.234375 C 27.828125 -17.523438 27.46875 -14.96875 26.75 -12.5625 C 26.039062 -10.164062 25.050781 -8.054688 23.78125 -6.234375 C 22.519531 -4.421875 21.046875 -2.957031 19.359375 -1.84375 C 17.671875 -0.726562 15.859375 -0.113281 13.921875 0 L 1.875 0 C 1.832031 0 1.8125 -0.0195312 1.8125 -0.0625 C 1.738281 -0.0625 1.703125 -0.078125 1.703125 -0.109375 L 1.703125 -40.3125 C 1.742188 -40.351562 1.78125 -40.375 1.8125 -40.375 C 1.851562 -40.40625 1.875 -40.421875 1.875 -40.421875 L 13.359375 -40.421875 C 14.203125 -40.421875 14.945312 -40.335938 15.59375 -40.171875 C 16.238281 -40.015625 16.832031 -39.820312 17.375 -39.59375 Z M 21.78125 -8.75 L 21.78125 -31.6875 C 21.78125 -31.757812 21.769531 -31.910156 21.75 -32.140625 C 21.726562 -32.378906 21.703125 -32.664062 21.671875 -33 C 21.628906 -33.4375 21.484375 -33.988281 21.234375 -34.65625 C 20.640625 -36.1875 19.691406 -37.445312 18.390625 -38.4375 C 17.085938 -39.4375 15.613281 -39.988281 13.96875 -40.09375 L 7.75 -40.09375 L 7.75 -0.328125 L 13.6875 -0.328125 C 13.914062 -0.328125 14.226562 -0.382812 14.625 -0.5 C 14.882812 -0.53125 15.148438 -0.5625 15.421875 -0.59375 C 15.703125 -0.632812 15.988281 -0.726562 16.28125 -0.875 C 17.851562 -1.425781 19.132812 -2.367188 20.125 -3.703125 C 21.113281 -5.046875 21.644531 -6.5625 21.71875 -8.25 C 21.757812 -8.363281 21.78125 -8.53125 21.78125 -8.75 Z M 21.78125 -8.75 "/></g></g></g><g fill="#ffffff" fill-opacity="1"><g transform="translate(266.052377, 122.999998)"><g><path d="M 24.921875 -23.15625 C 24.953125 -23.113281 24.96875 -23.09375 24.96875 -23.09375 L 24.96875 -0.109375 C 24.9375 -0.078125 24.921875 -0.0625 24.921875 -0.0625 C 24.878906 -0.0195312 24.859375 0 24.859375 0 L 19.03125 0 C 18.988281 0 18.96875 -0.0195312 18.96875 -0.0625 C 18.9375 -0.0625 18.921875 -0.078125 18.921875 -0.109375 L 18.921875 -4.015625 C 18.878906 -3.679688 18.734375 -3.332031 18.484375 -2.96875 C 18.078125 -2.238281 17.488281 -1.5625 16.71875 -0.9375 C 15.945312 -0.3125 14.828125 0 13.359375 0 L 13.25 0 C 11.632812 0 10.128906 -0.300781 8.734375 -0.90625 C 7.347656 -1.507812 6.128906 -2.34375 5.078125 -3.40625 C 4.035156 -4.46875 3.210938 -5.695312 2.609375 -7.09375 C 2.003906 -8.488281 1.703125 -9.992188 1.703125 -11.609375 C 1.703125 -13.222656 2.003906 -14.734375 2.609375 -16.140625 C 3.210938 -17.554688 4.046875 -18.796875 5.109375 -19.859375 C 6.171875 -20.921875 7.40625 -21.753906 8.8125 -22.359375 C 10.226562 -22.960938 11.742188 -23.265625 13.359375 -23.265625 C 14.347656 -23.265625 15.3125 -23.132812 16.25 -22.875 C 17.1875 -22.625 18.078125 -22.257812 18.921875 -21.78125 L 18.921875 -23.09375 C 18.921875 -23.132812 18.9375 -23.15625 18.96875 -23.15625 L 18.96875 -23.265625 L 24.859375 -23.265625 C 24.898438 -23.222656 24.921875 -23.1875 24.921875 -23.15625 Z M 18.921875 -11.609375 L 18.921875 -17.328125 C 18.921875 -18.097656 18.773438 -18.820312 18.484375 -19.5 C 18.191406 -20.175781 17.796875 -20.757812 17.296875 -21.25 C 16.804688 -21.75 16.21875 -22.144531 15.53125 -22.4375 C 14.851562 -22.726562 14.128906 -22.875 13.359375 -22.875 C 12.585938 -22.875 11.851562 -22.726562 11.15625 -22.4375 C 10.46875 -22.144531 9.875 -21.75 9.375 -21.25 C 8.882812 -20.757812 8.488281 -20.175781 8.1875 -19.5 C 7.894531 -18.820312 7.75 -18.097656 7.75 -17.328125 L 7.75 -5.671875 C 7.75 -5.554688 7.765625 -5.441406 7.796875 -5.328125 C 7.835938 -5.222656 7.859375 -5.113281 7.859375 -5 C 7.898438 -4.851562 7.9375 -4.695312 7.96875 -4.53125 C 8.007812 -4.375 8.066406 -4.203125 8.140625 -4.015625 C 8.503906 -2.953125 9.160156 -2.070312 10.109375 -1.375 C 11.066406 -0.675781 12.148438 -0.328125 13.359375 -0.328125 C 14.753906 -0.328125 15.828125 -0.609375 16.578125 -1.171875 C 17.328125 -1.742188 17.867188 -2.378906 18.203125 -3.078125 C 18.535156 -3.734375 18.738281 -4.335938 18.8125 -4.890625 C 18.882812 -5.441406 18.921875 -5.753906 18.921875 -5.828125 Z M 18.921875 -11.609375 "/></g></g></g><g fill="#ffffff" fill-opacity="1"><g transform="translate(292.725441, 122.999998)"><g><path d="M 16.21875 -23.265625 C 16.332031 -23.265625 16.390625 -23.207031 16.390625 -23.09375 C 16.390625 -22.945312 16.332031 -22.875 16.21875 -22.875 L 10.671875 -22.875 L 10.671875 -0.171875 L 10.609375 -0.0625 C 10.609375 -0.0195312 10.554688 0 10.453125 0 L 4.734375 0 C 4.691406 0 4.65625 -0.0195312 4.625 -0.0625 L 4.625 -22.875 L 1.875 -22.875 C 1.757812 -22.875 1.703125 -22.945312 1.703125 -23.09375 C 1.703125 -23.207031 1.757812 -23.265625 1.875 -23.265625 L 4.625 -23.265625 L 4.625 -28.9375 L 4.671875 -28.9375 C 5.734375 -29.476562 6.613281 -30.003906 7.3125 -30.515625 C 8.007812 -31.035156 8.554688 -31.523438 8.953125 -31.984375 C 9.359375 -32.441406 9.65625 -32.851562 9.84375 -33.21875 C 10.03125 -33.582031 10.160156 -33.875 10.234375 -34.09375 C 10.304688 -34.238281 10.34375 -34.351562 10.34375 -34.4375 L 10.34375 -34.546875 C 10.34375 -34.617188 10.359375 -34.65625 10.390625 -34.65625 L 10.453125 -34.703125 C 10.484375 -34.671875 10.519531 -34.65625 10.5625 -34.65625 L 10.609375 -34.65625 C 10.648438 -34.613281 10.671875 -34.578125 10.671875 -34.546875 L 10.671875 -23.265625 Z M 16.21875 -23.265625 "/></g></g></g><g fill="#ffffff" fill-opacity="1"><g transform="translate(310.819133, 122.999998)"><g><path d="M 24.921875 -23.15625 C 24.953125 -23.113281 24.96875 -23.09375 24.96875 -23.09375 L 24.96875 -0.109375 C 24.9375 -0.078125 24.921875 -0.0625 24.921875 -0.0625 C 24.878906 -0.0195312 24.859375 0 24.859375 0 L 19.03125 0 C 18.988281 0 18.96875 -0.0195312 18.96875 -0.0625 C 18.9375 -0.0625 18.921875 -0.078125 18.921875 -0.109375 L 18.921875 -4.015625 C 18.878906 -3.679688 18.734375 -3.332031 18.484375 -2.96875 C 18.078125 -2.238281 17.488281 -1.5625 16.71875 -0.9375 C 15.945312 -0.3125 14.828125 0 13.359375 0 L 13.25 0 C 11.632812 0 10.128906 -0.300781 8.734375 -0.90625 C 7.347656 -1.507812 6.128906 -2.34375 5.078125 -3.40625 C 4.035156 -4.46875 3.210938 -5.695312 2.609375 -7.09375 C 2.003906 -8.488281 1.703125 -9.992188 1.703125 -11.609375 C 1.703125 -13.222656 2.003906 -14.734375 2.609375 -16.140625 C 3.210938 -17.554688 4.046875 -18.796875 5.109375 -19.859375 C 6.171875 -20.921875 7.40625 -21.753906 8.8125 -22.359375 C 10.226562 -22.960938 11.742188 -23.265625 13.359375 -23.265625 C 14.347656 -23.265625 15.3125 -23.132812 16.25 -22.875 C 17.1875 -22.625 18.078125 -22.257812 18.921875 -21.78125 L 18.921875 -23.09375 C 18.921875 -23.132812 18.9375 -23.15625 18.96875 -23.15625 L 18.96875 -23.265625 L 24.859375 -23.265625 C 24.898438 -23.222656 24.921875 -23.1875 24.921875 -23.15625 Z M 18.921875 -11.609375 L 18.921875 -17.328125 C 18.921875 -18.097656 18.773438 -18.820312 18.484375 -19.5 C 18.191406 -20.175781 17.796875 -20.757812 17.296875 -21.25 C 16.804688 -21.75 16.21875 -22.144531 15.53125 -22.4375 C 14.851562 -22.726562 14.128906 -22.875 13.359375 -22.875 C 12.585938 -22.875 11.851562 -22.726562 11.15625 -22.4375 C 10.46875 -22.144531 9.875 -21.75 9.375 -21.25 C 8.882812 -20.757812 8.488281 -20.175781 8.1875 -19.5 C 7.894531 -18.820312 7.75 -18.097656 7.75 -17.328125 L 7.75 -5.671875 C 7.75 -5.554688 7.765625 -5.441406 7.796875 -5.328125 C 7.835938 -5.222656 7.859375 -5.113281 7.859375 -5 C 7.898438 -4.851562 7.9375 -4.695312 7.96875 -4.53125 C 8.007812 -4.375 8.066406 -4.203125 8.140625 -4.015625 C 8.503906 -2.953125 9.160156 -2.070312 10.109375 -1.375 C 11.066406 -0.675781 12.148438 -0.328125 13.359375 -0.328125 C 14.753906 -0.328125 15.828125 -0.609375 16.578125 -1.171875 C 17.328125 -1.742188 17.867188 -2.378906 18.203125 -3.078125 C 18.535156 -3.734375 18.738281 -4.335938 18.8125 -4.890625 C 18.882812 -5.441406 18.921875 -5.753906 18.921875 -5.828125 Z M 18.921875 -11.609375 "/></g></g></g></svg>