<svg xmlns="http://www.w3.org/2000/svg" xmlns:xlink="http://www.w3.org/1999/xlink" width="500" zoomAndPan="magnify" viewBox="0 0 375 374.999991" height="500" preserveAspectRatio="xMidYMid meet" version="1.0"><path fill="#ffffff" d="M 44.664062 246.628906 C 42.355469 245.332031 40.128906 244.003906 37.988281 242.644531 C 13.742188 227.292969 -0.0078125 207.953125 -0.0078125 187.472656 C -0.0078125 166.996094 13.742188 147.65625 37.988281 132.300781 C 40.128906 130.945312 42.355469 129.617188 44.664062 128.320312 C 43.949219 125.773438 43.3125 123.257812 42.757812 120.78125 C 36.46875 92.78125 40.421875 69.386719 54.90625 54.90625 C 69.386719 40.421875 92.78125 36.46875 120.78125 42.757812 C 123.257812 43.3125 125.773438 43.949219 128.320312 44.664062 C 129.617188 42.355469 130.945312 40.128906 132.300781 37.988281 C 147.65625 13.742188 166.996094 -0.0078125 187.472656 -0.0078125 C 207.953125 -0.0078125 227.292969 13.742188 242.644531 37.988281 C 244.003906 40.128906 245.332031 42.355469 246.628906 44.664062 C 249.175781 43.949219 251.6875 43.3125 254.164062 42.757812 C 282.167969 36.46875 305.5625 40.425781 320.042969 54.90625 C 334.523438 69.386719 338.476562 92.78125 332.191406 120.78125 C 331.632812 123.257812 331 125.773438 330.285156 128.320312 C 332.589844 129.617188 334.816406 130.945312 336.960938 132.300781 C 361.207031 147.65625 374.953125 166.996094 374.953125 187.472656 C 374.953125 207.953125 361.207031 227.292969 336.960938 242.644531 C 334.816406 244.003906 332.589844 245.332031 330.285156 246.628906 C 331 249.175781 331.632812 251.6875 332.191406 254.164062 C 338.476562 282.167969 334.523438 305.5625 320.042969 320.042969 C 305.5625 334.523438 282.167969 338.476562 254.164062 332.191406 C 251.6875 331.632812 249.175781 331 246.628906 330.285156 C 245.332031 332.589844 244.003906 334.816406 242.644531 336.960938 C 227.292969 361.207031 207.953125 374.953125 187.472656 374.953125 C 166.996094 374.953125 147.65625 361.207031 132.300781 336.960938 C 130.945312 334.816406 129.617188 332.589844 128.320312 330.285156 C 125.773438 331 123.257812 331.632812 120.78125 332.191406 C 92.78125 338.476562 69.386719 334.523438 54.90625 320.042969 C 40.421875 305.5625 36.46875 282.167969 42.757812 254.164062 C 43.3125 251.6875 43.949219 249.175781 44.664062 246.628906 Z M 48.835938 141.191406 C 47.550781 141.945312 46.296875 142.710938 45.070312 143.488281 C 25.417969 155.933594 13.234375 170.875 13.234375 187.472656 C 13.234375 204.074219 25.417969 219.015625 45.070312 231.460938 C 46.296875 232.234375 47.550781 233 48.835938 233.753906 C 54.234375 218.992188 62.007812 203.351562 71.9375 187.472656 C 62.007812 171.597656 54.234375 155.957031 48.835938 141.191406 Z M 122.167969 56.714844 C 120.726562 56.339844 119.296875 55.996094 117.882812 55.679688 C 95.183594 50.582031 76.007812 52.53125 64.269531 64.269531 C 52.53125 76.007812 50.582031 95.183594 55.679688 117.882812 C 55.996094 119.296875 56.339844 120.726562 56.714844 122.167969 C 70.972656 115.546875 87.527344 109.984375 105.777344 105.777344 C 109.984375 87.527344 115.546875 70.972656 122.167969 56.714844 Z M 233.753906 48.835938 C 233 47.550781 232.234375 46.296875 231.460938 45.070312 C 219.015625 25.417969 204.074219 13.234375 187.472656 13.234375 C 170.875 13.234375 155.933594 25.417969 143.488281 45.070312 C 142.710938 46.296875 141.945312 47.550781 141.191406 48.835938 C 155.957031 54.234375 171.597656 62.007812 187.472656 71.9375 C 203.351562 62.007812 218.992188 54.234375 233.753906 48.835938 Z M 318.234375 122.167969 C 318.605469 120.726562 318.953125 119.296875 319.269531 117.882812 C 324.367188 95.183594 322.417969 76.007812 310.679688 64.269531 C 298.941406 52.53125 279.761719 50.582031 257.066406 55.679688 C 255.652344 55.996094 254.222656 56.339844 252.78125 56.714844 C 259.402344 70.972656 264.964844 87.527344 269.171875 105.777344 C 287.421875 109.984375 303.976562 115.546875 318.234375 122.167969 Z M 326.113281 233.753906 C 327.398438 233 328.652344 232.234375 329.878906 231.460938 C 349.53125 219.015625 361.714844 204.074219 361.714844 187.472656 C 361.714844 170.875 349.53125 155.933594 329.878906 143.488281 C 328.652344 142.710938 327.398438 141.945312 326.113281 141.191406 C 320.710938 155.957031 312.941406 171.597656 303.011719 187.472656 C 312.941406 203.351562 320.710938 218.992188 326.113281 233.753906 Z M 252.78125 318.234375 C 254.222656 318.605469 255.652344 318.953125 257.066406 319.269531 C 279.761719 324.367188 298.941406 322.417969 310.679688 310.679688 C 322.417969 298.941406 324.367188 279.761719 319.269531 257.066406 C 318.953125 255.652344 318.605469 254.222656 318.234375 252.78125 C 303.976562 259.402344 287.417969 264.964844 269.171875 269.171875 C 264.964844 287.417969 259.402344 303.976562 252.78125 318.234375 Z M 141.191406 326.113281 C 141.945312 327.398438 142.710938 328.652344 143.488281 329.878906 C 155.933594 349.53125 170.875 361.714844 187.472656 361.714844 C 204.074219 361.714844 219.015625 349.53125 231.460938 329.878906 C 232.234375 328.652344 233 327.398438 233.753906 326.113281 C 218.992188 320.710938 203.351562 312.941406 187.472656 303.011719 C 171.597656 312.941406 155.957031 320.710938 141.191406 326.113281 Z M 56.714844 252.78125 C 56.339844 254.222656 55.996094 255.652344 55.679688 257.066406 C 50.582031 279.761719 52.53125 298.941406 64.269531 310.679688 C 76.007812 322.417969 95.183594 324.367188 117.882812 319.269531 C 119.296875 318.953125 120.726562 318.605469 122.167969 318.234375 C 115.546875 303.976562 109.984375 287.417969 105.777344 269.171875 C 87.527344 264.964844 70.972656 259.402344 56.714844 252.78125 Z M 102.828125 120.058594 C 87.167969 124.015625 72.949219 129.039062 60.632812 134.933594 C 65.175781 147.8125 71.675781 161.421875 79.949219 175.289062 C 85.621094 167.070312 91.847656 158.832031 98.605469 150.664062 C 99.605469 140.109375 101.023438 129.882812 102.828125 120.058594 Z M 79.949219 199.660156 C 71.675781 213.527344 65.175781 227.132812 60.632812 240.011719 C 72.949219 245.90625 87.167969 250.933594 102.828125 254.886719 C 101.023438 245.066406 99.605469 234.835938 98.605469 224.285156 C 91.847656 216.117188 85.621094 207.878906 79.949219 199.660156 Z M 175.289062 79.949219 C 161.421875 71.675781 147.8125 65.175781 134.933594 60.632812 C 129.039062 72.949219 124.015625 87.167969 120.058594 102.828125 C 129.882812 101.023438 140.109375 99.605469 150.664062 98.605469 C 158.832031 91.847656 167.070312 85.621094 175.289062 79.949219 Z M 254.886719 102.828125 C 250.933594 87.167969 245.90625 72.949219 240.011719 60.632812 C 227.132812 65.175781 213.527344 71.675781 199.660156 79.949219 C 207.878906 85.621094 216.117188 91.847656 224.285156 98.605469 C 234.835938 99.605469 245.066406 101.023438 254.886719 102.828125 Z M 294.996094 175.289062 C 303.273438 161.421875 309.773438 147.8125 314.3125 134.933594 C 301.996094 129.039062 287.78125 124.015625 272.121094 120.058594 C 273.921875 129.882812 275.34375 140.109375 276.34375 150.664062 C 283.097656 158.832031 289.328125 167.070312 294.996094 175.289062 Z M 272.121094 254.886719 C 287.78125 250.933594 301.996094 245.90625 314.3125 240.011719 C 309.773438 227.132812 303.273438 213.527344 294.996094 199.660156 C 289.328125 207.878906 283.097656 216.117188 276.34375 224.285156 C 275.34375 234.835938 273.921875 245.066406 272.121094 254.886719 Z M 199.660156 294.996094 C 213.527344 303.273438 227.132812 309.773438 240.011719 314.3125 C 245.90625 301.996094 250.933594 287.78125 254.886719 272.121094 C 245.066406 273.921875 234.835938 275.34375 224.285156 276.34375 C 216.117188 283.097656 207.878906 289.328125 199.660156 294.996094 Z M 120.058594 272.121094 C 124.015625 287.78125 129.039062 301.996094 134.933594 314.3125 C 147.8125 309.773438 161.421875 303.273438 175.289062 294.996094 C 167.070312 289.328125 158.832031 283.097656 150.664062 276.34375 C 140.109375 275.34375 129.882812 273.921875 120.058594 272.121094 Z M 97.109375 173.996094 C 93.78125 178.492188 90.621094 182.988281 87.640625 187.472656 C 90.621094 191.957031 93.78125 196.457031 97.109375 200.953125 C 96.960938 196.5 96.882812 192.007812 96.882812 187.472656 C 96.882812 182.941406 96.960938 178.449219 97.109375 173.996094 Z M 116.878906 116.878906 C 115.816406 122.160156 114.871094 127.574219 114.046875 133.105469 C 117.085938 129.851562 120.210938 126.621094 123.417969 123.417969 C 126.621094 120.210938 129.851562 117.085938 133.105469 114.046875 C 127.574219 114.871094 122.160156 115.816406 116.878906 116.878906 Z M 114.046875 241.839844 C 114.871094 247.375 115.816406 252.789062 116.878906 258.066406 C 122.160156 259.132812 127.574219 260.078125 133.105469 260.902344 C 129.851562 257.859375 126.621094 254.738281 123.417969 251.53125 C 120.210938 248.328125 117.085938 245.09375 114.046875 241.839844 Z M 187.472656 87.640625 C 182.988281 90.621094 178.492188 93.78125 173.996094 97.109375 C 178.449219 96.957031 182.941406 96.882812 187.472656 96.882812 C 192.007812 96.882812 196.5 96.957031 200.953125 97.109375 C 196.457031 93.78125 191.957031 90.621094 187.472656 87.640625 Z M 258.066406 116.878906 C 252.789062 115.816406 247.375 114.871094 241.839844 114.046875 C 245.09375 117.085938 248.328125 120.210938 251.53125 123.417969 C 254.738281 126.621094 257.859375 129.851562 260.902344 133.105469 C 260.078125 127.574219 259.132812 122.160156 258.066406 116.878906 Z M 287.308594 187.472656 C 284.328125 182.988281 281.167969 178.492188 277.839844 173.996094 C 277.988281 178.449219 278.066406 182.941406 278.066406 187.472656 C 278.066406 192.007812 277.988281 196.5 277.839844 200.953125 C 281.167969 196.457031 284.328125 191.957031 287.308594 187.472656 Z M 258.066406 258.066406 C 259.132812 252.789062 260.078125 247.375 260.902344 241.839844 C 257.859375 245.09375 254.738281 248.328125 251.53125 251.53125 C 248.328125 254.738281 245.09375 257.859375 241.839844 260.902344 C 247.375 260.078125 252.789062 259.132812 258.066406 258.066406 Z M 187.472656 287.308594 C 191.957031 284.328125 196.457031 281.167969 200.953125 277.839844 C 196.5 277.988281 192.007812 278.066406 187.472656 278.066406 C 182.941406 278.066406 178.449219 277.988281 173.996094 277.839844 C 178.492188 281.167969 182.988281 284.328125 187.472656 287.308594 Z M 158.925781 200.800781 L 149.03125 225.066406 L 137.070312 220.191406 L 165.882812 149.511719 L 177.847656 149.511719 L 206.660156 220.191406 L 194.699219 225.066406 L 184.804688 200.800781 Z M 179.539062 187.878906 L 171.863281 169.058594 L 164.191406 187.878906 Z M 213.3125 148.460938 L 226.230469 148.460938 L 226.230469 223.773438 L 213.3125 223.773438 Z M 213.3125 148.460938 " fill-opacity="1" fill-rule="evenodd"/></svg>